<?xml version="1.0" encoding="UTF-8" standalone="no"?>
<svg
   width="20"
   height="20"
   viewBox="0 0 20 20"
   fill="none"
   version="1.1"
   id="svg1"
   sodipodi:docname="github-mark.svg"
   inkscape:version="1.4 (e7c3feb1, 2024-10-09)"
   xmlns:inkscape="http://www.inkscape.org/namespaces/inkscape"
   xmlns:sodipodi="http://sodipodi.sourceforge.net/DTD/sodipodi-0.dtd"
   xmlns="http://www.w3.org/2000/svg"
   xmlns:svg="http://www.w3.org/2000/svg">
  <defs
     id="defs1" />
  <sodipodi:namedview
     id="namedview1"
     pagecolor="#ffffff"
     bordercolor="#000000"
     borderopacity="0.25"
     inkscape:showpageshadow="2"
     inkscape:pageopacity="0.0"
     inkscape:pagecheckerboard="0"
     inkscape:deskcolor="#d1d1d1"
     inkscape:zoom="37.905076"
     inkscape:cx="12.096005"
     inkscape:cy="10.76373"
     inkscape:window-width="1712"
     inkscape:window-height="1387"
     inkscape:window-x="0"
     inkscape:window-y="25"
     inkscape:window-maximized="0"
     inkscape:current-layer="svg1" />
  <path
     fill-rule="evenodd"
     clip-rule="evenodd"
     d="m 10.0073,0.2901986 c -5.4853055,0 -9.92815493,4.4428494 -9.92815493,9.9281554 0,4.393209 2.84193443,8.103857 6.78837613,9.419337 0.4964077,0.08688 0.6825606,-0.210973 0.6825606,-0.471587 0,-0.235794 -0.012411,-1.017636 -0.012411,-1.849119 C 5.0432227,17.776163 4.3978926,16.708886 4.1993295,16.150427 4.0876377,15.864992 3.6036401,14.983869 3.1816936,14.748075 2.8342081,14.561922 2.3378004,14.102745 3.169283,14.090335 c 0.7818423,-0.01241 1.340301,0.71979 1.526454,1.017636 0.8935339,1.501633 2.3207062,1.079686 2.8915751,0.819072 0.086872,-0.64533 0.3474857,-1.079687 0.6329202,-1.32789 -2.2090145,-0.248205 -4.5173106,-1.104508 -4.5173106,-4.9020274 0,-1.0796869 0.384716,-1.9732208 1.0176359,-2.6681917 C 4.6212766,6.78073 4.2737907,5.763094 4.8198386,4.3979728 c 0,0 0.8314829,-0.2606141 2.7302426,1.0176358 0.7942524,-0.2233834 1.6381456,-0.3350752 2.4820388,-0.3350752 0.843894,0 1.687787,0.1116918 2.482039,0.3350752 1.89876,-1.2906601 2.730243,-1.0176358 2.730243,-1.0176358 0.546047,1.3651212 0.198563,2.3827572 0.09928,2.6309611 0.63292,0.6949709 1.017635,1.5760946 1.017635,2.6681917 0,3.8099304 -2.320705,4.6538224 -4.52972,4.9020274 0.359896,0.310254 0.670151,0.905944 0.670151,1.836708 0,1.327891 -0.01241,2.395168 -0.01241,2.730243 0,0.260614 0.186154,0.570868 0.682562,0.471587 3.92162,-1.31548 6.763554,-5.038538 6.763554,-9.419337 1e-6,-5.485306 -4.442848,-9.9281554 -9.928154,-9.9281554 z"
     fill="#1b1f23"
     id="path1"
     style="stroke-width:1.24102" />
</svg>
